<?xml version="1.0" encoding="utf-8"?>
<!-- Generator: Adobe Illustrator 25.0.0, SVG Export Plug-In . SVG Version: 6.00 Build 0)  -->
<svg version="1.1" id="Layer_1" xmlns="http://www.w3.org/2000/svg" xmlns:xlink="http://www.w3.org/1999/xlink" x="0px" y="0px"
	 viewBox="0 0 128 512" style="enable-background:new 0 0 128 512;" xml:space="preserve">
<style type="text/css">
	.st0{fill:#FFFFFF;}
	.st1{fill:#FCBF49;}
	.st2{fill:#003049;}
</style>
<g>
	<path class="st0" d="M64,17.3c-47.2,0.5-56.9,85.8-51.3,118.8c4.7,27.7,30.4,44.6,38.6,49.4c1.5,0.9,2.4,2.5,2.4,4.3L45,489
		c-0.4,12.6,8.1,23,18.8,23c10.7,0,19.2-10.5,18.8-23l-8.7-299.1c-0.1-1.8,0.9-3.4,2.4-4.3c8.3-4.8,34.4-21.7,39.1-49.4
		C120.9,103.2,111.2,17.8,64,17.3z M64,114.9c-18.9,0-18.7-15.8-18.7-15.8h37.4C82.7,99.1,82.9,114.9,64,114.9z"/>
	<path class="st1" d="M37.4,21.7L37.4,21.7c4.9-4.1,10.3-6.9,16.1-8.5l0,0C53.9,5.4,47.6,0,47.6,0c0.8,4.6-2.3,7.8-2.3,7.8
		c-2.5-6.1-9-7.8-9-7.8c6.1,5.9,3.2,13.3,3.2,13.3C32.1,9.4,23.5,11,23.5,11C34.7,12.9,37.4,21.7,37.4,21.7z"/>
	<path class="st2" d="M91.8,61.3c0-3.5,2.9-6.4,6.4-6.4s6.4,2.9,6.4,6.4c0,3.5-2.9,6.4-6.4,6.4S91.8,64.8,91.8,61.3z M45.8,67.7
		c3.5,0,6.4-2.9,6.4-6.4c0-3.5-2.9-6.4-6.4-6.4c-3.5,0-6.4,2.9-6.4,6.4C39.5,64.8,42.3,67.7,45.8,67.7z M122,61.3
		c0,15.7-12.7,28.4-28.4,28.4c-14.8,0-26.9-11.3-28.3-25.7h-2.6c-1.4,14.4-13.5,25.7-28.3,25.7C18.7,89.7,6,77,6,61.3
		s12.7-28.4,28.4-28.4c14.8,0,26.9,11.3,28.3,25.7h2.6c1.4-14.4,13.5-25.7,28.3-25.7C109.3,32.9,122,45.6,122,61.3z M58.4,61.3
		c0-13.2-10.8-24-24-24s-24,10.8-24,24s10.8,24,24,24S58.4,74.5,58.4,61.3z M117.6,61.3c0-13.2-10.8-24-24-24s-24,10.8-24,24
		s10.8,24,24,24S117.6,74.5,117.6,61.3z"/>
</g>
</svg>
